HIERARCHY
ROOT Hips
{
	OFFSET 0.00000 0.00000 0.00000
	CHANNELS 6 Xposition Yposition Zposition Zrotation Yrotation Xrotation 
	JOINT LHipJoint
	{
		OFFSET 0 0 0
		CHANNELS 3 Zrotation Yrotation Xrotation
		JOINT LeftHip
		{
			OFFSET 1.34019 -1.87553 0.90315
			CHANNELS 3 Zrotation Yrotation Xrotation
			JOINT LeftKnee
			{
				OFFSET 2.55316 -7.01474 0.00000
				CHANNELS 3 Zrotation Yrotation Xrotation
				JOINT LeftAnkle
				{
					OFFSET 2.64657 -7.27139 0.00000
					CHANNELS 3 Zrotation Yrotation Xrotation
					JOINT LeftToe
					{
						OFFSET 0.24207 -0.66507 2.14489
						CHANNELS 3 Zrotation Yrotation Xrotation
						End Site
						{
							OFFSET 0.00000 -0.00000 1.12451
						}
					}
				}
			}
		}
	}
	JOINT RHipJoint
	{
		OFFSET 0 0 0
		CHANNELS 3 Zrotation Yrotation Xrotation
		JOINT RightHip
		{
			OFFSET -1.28320 -1.87553 0.90315
			CHANNELS 3 Zrotation Yrotation Xrotation
			JOINT RightKnee
			{
				OFFSET -2.60484 -7.15674 0.00000
				CHANNELS 3 Zrotation Yrotation Xrotation
				JOINT RightAnkle
				{
					OFFSET -2.60296 -7.15159 0.00000
					CHANNELS 3 Zrotation Yrotation Xrotation
					JOINT RightToe
					{
						OFFSET -0.31082 -0.85398 2.28998
						CHANNELS 3 Zrotation Yrotation Xrotation
						End Site
						{
							OFFSET -0.00000 -0.00000 1.21611
						}
					}
				}
			}
		}
	}
	JOINT lowerback
	{
		OFFSET 0 0 0
		CHANNELS 3 Zrotation Yrotation Xrotation
		JOINT Chest
		{
			OFFSET -0.00160 2.05581 -0.15156
			CHANNELS 3 Zrotation Yrotation Xrotation
			JOINT Chest2
			{
				OFFSET 0.04594 2.06326 -0.01617
				CHANNELS 3 Zrotation Yrotation Xrotation
				JOINT lowerneck
				{
					OFFSET 0 0 0
					CHANNELS 3 Zrotation Yrotation Xrotation
					JOINT Neck
					{
						OFFSET 0.03753 1.73883 0.26751
						CHANNELS 3 Zrotation Yrotation Xrotation
						JOINT Head
						{
							OFFSET -0.09795 1.76129 -0.31794
							CHANNELS 3 Zrotation Yrotation Xrotation
							End Site
							{
								OFFSET -0.03611 1.79987 -0.13846
							}
						}
					}
				}
				JOINT LeftCollar
				{
					OFFSET 0 0 0
					CHANNELS 3 Zrotation Yrotation Xrotation
					JOINT LeftShoulder
					{
						OFFSET 3.30667 1.29205 -0.22445
CHANNELS 3 Zrotation Xrotation Yrotation
						JOINT LeftElbow
						{
OFFSET 0 -4.927850 -0.000000
CHANNELS 3 Zrotation Xrotation Yrotation
							JOINT LeftWrist
							{
OFFSET 0 -3.440520 0.000000
CHANNELS 3 Zrotation Xrotation Yrotation
								JOINT lhand
								{
									OFFSET 0 0 0
CHANNELS 3 Zrotation Xrotation Yrotation
									JOINT LFingers
									{
OFFSET 0 -0.654330 0.000000
CHANNELS 3 Zrotation Xrotation Yrotation
										End Site
										{
OFFSET 0 -0.527530 0.000000
										}
									}
								}
								JOINT LThumb
								{
OFFSET 0 0.000000 0.000000
CHANNELS 3 Zrotation Xrotation Yrotation
									End Site
									{
OFFSET 0 -0.535590 0.535590
									}
								}
							}
						}
					}
				}
				JOINT RightCollar
				{
					OFFSET 0 0 0
					CHANNELS 3 Zrotation Yrotation Xrotation
					JOINT RightShoulder
					{
						OFFSET -3.20032 1.49783 -0.27688
CHANNELS 3 Zrotation Xrotation Yrotation
						JOINT RightElbow
						{
OFFSET 0 -5.091810 -0.000000
CHANNELS 3 Zrotation Xrotation Yrotation
							JOINT RightWrist
							{
OFFSET 0 -3.498650 -0.000000
CHANNELS 3 Zrotation Xrotation Yrotation
								JOINT rhand
								{
									OFFSET 0 0 0
CHANNELS 3 Zrotation Xrotation Yrotation
									JOINT RFingers
									{
OFFSET 0 -0.666410 0.000000
CHANNELS 3 Zrotation Xrotation Yrotation
										End Site
										{
OFFSET 0 -0.537280 0.000000
										}
									}
								}
								JOINT RThumb
								{
OFFSET 0 0.000000 0.000000
CHANNELS 3 Zrotation Xrotation Yrotation
									End Site
									{
OFFSET 0 -0.545480 0.545480
									}
								}
							}
						}
					}
				}
			}
		}
	}
}
MOTION
Frames: 7
Frame Time: 0.008333333333333333
0.579600 18.049000 -31.349400 -3.317900 3.669600 2.223700 0.000000 0.000000 0.000000 -16.729100 -3.943500 -7.126100 1.601900 7.982200 22.660200 -0.022100 10.907000 -15.193800 0.078600 -1.808400 -4.976300 0.000000 0.000000 0.000000 20.661900 1.643700 -8.321200 -1.820800 -8.482500 24.189400 0.318000 -14.712100 -16.956700 -0.030700 1.130700 -3.108400 6.593100 -5.517700 2.949300 1.311900 -7.017600 -1.830900 -1.801800 -3.641300 -4.177400 9.521400 8.210200 -22.253300 -7.554800 10.380700 22.888300 -2.593100 4.533700 12.152100 -0.000000 0.000000 0.000000 1.665300 9.718700 -8.291900 16.294800 -25.918800 3.773900 11.805600 -8.925400 -1.206100 0.000000 0.000000 0.000000 -7.125000 0.000000 0.000000 -11.723700 31.081600 -4.063500 -0.000000 0.000000 0.000000 -5.393400 5.498200 21.693800 -14.089200 -22.862100 -2.862700 -13.792400 -1.725300 3.517500 0.000000 0.000000 0.000000 7.125000 0.000000 -0.000000 10.449100 33.465600 2.997400
0.574403 18.049157 -31.350714 -3.309175 3.708231 2.232953 0.000000 0.000000 0.000000 -16.715279 -3.971531 -7.149628 1.600458 7.978903 22.650152 -0.024115 10.908666 -15.165572 0.079457 -1.818411 -5.004048 0.000000 0.000000 0.000000 20.670055 1.614881 -8.351004 -1.822683 -8.486580 24.202011 0.313161 -14.697069 -16.999843 -0.029972 1.117586 -3.072425 -2.598106 1.486950 1.402153 4.241804 2.011568 -1.104479 5.788640 1.084231 -2.175506 5.993659 -1.348112 -22.264654 -7.727893 -1.894583 22.701807 -4.119797 -1.331934 10.859423 0.000000 0.000000 0.000000 1.251261 5.144707 -27.256874 14.674871 -23.691069 3.094183 11.802790 -7.071112 -0.999473 0.000000 0.000000 0.000000 -7.125000 0.000000 0.000000 -11.699450 30.874902 -4.114040 0.000000 0.000000 0.000000 -6.013255 8.096798 3.058687 -15.592886 -24.965336 -3.472471 -13.704884 -3.805291 3.790172 0.000000 0.000000 0.000000 7.125000 0.000000 0.000000 10.557136 33.738177 2.958380
0.567667 18.049614 -31.352255 -3.245043 3.822859 2.266022 0.000000 0.000000 0.000000 -16.753740 -4.007757 -7.181645 1.596845 7.970361 22.624070 -0.019895 10.833357 -15.121139 0.079372 -1.817681 -5.002027 0.000000 0.000000 0.000000 20.620955 1.551363 -8.418018 -1.827083 -8.496266 24.231885 0.308672 -14.696370 -17.063937 -0.028872 1.096504 -3.014365 -2.673552 2.091920 1.445481 3.869696 2.813668 -1.220986 5.403171 1.490490 -2.395679 6.161962 -2.194129 -21.993205 -7.366411 -3.226663 22.750612 -4.201257 -1.875641 10.715830 0.000000 0.000000 0.000000 2.128925 5.025706 -29.389561 14.646484 -23.651328 3.082716 11.789232 -7.404307 -1.051847 0.000000 0.000000 0.000000 -7.125000 0.000000 0.000000 -11.716666 30.926988 -4.105410 0.000000 0.000000 0.000000 -5.071060 8.566769 1.397539 -15.914875 -25.405097 -3.609402 -13.776891 -4.109544 3.316544 0.000000 0.000000 0.000000 7.125000 0.000000 0.000000 10.434583 33.261593 3.045407
0.558218 18.049700 -31.352517 -3.201596 3.938604 2.258448 0.000000 0.000000 0.000000 -16.760196 -4.007385 -7.189860 1.595617 7.967363 22.614947 -0.011460 10.725612 -15.096511 0.079100 -1.813900 -4.991642 0.000000 0.000000 0.000000 20.610662 1.510587 -8.411033 -1.828312 -8.498995 24.240186 0.308929 -14.738323 -17.134393 -0.027788 1.076341 -2.958883 -1.832617 2.066070 1.699671 3.150432 2.782287 -1.320803 4.164766 1.455047 -2.557555 6.767044 -2.173140 -21.754296 -7.012048 -3.490949 22.577962 -4.194471 -1.898543 10.581545 0.000000 0.000000 0.000000 3.330552 5.146803 -29.841216 14.744557 -23.789039 3.122182 11.854071 -7.833000 -1.173339 0.000000 0.000000 0.000000 -7.125000 0.000000 0.000000 -11.681406 31.049964 -4.057389 0.000000 0.000000 0.000000 -3.946476 8.535709 1.363574 -16.101161 -25.657634 -3.689696 -14.014249 -4.108533 3.400753 0.000000 0.000000 0.000000 7.125000 0.000000 0.000000 10.254828 33.355360 2.967860
0.548663 18.049345 -31.350945 -3.148247 4.038293 2.225226 0.000000 0.000000 0.000000 -16.783401 -3.970383 -7.162465 1.594028 7.963655 22.603722 -0.003940 10.628419 -15.073788 0.078761 -1.810059 -4.980937 0.000000 0.000000 0.000000 20.588826 1.448986 -8.376047 -1.830439 -8.503560 24.254425 0.306567 -14.759187 -17.205223 -0.027100 1.062506 -2.920818 -0.797003 1.856685 2.065392 2.382249 2.516003 -1.514456 2.782214 1.297873 -2.856592 7.380261 -1.891390 -21.594038 -6.617937 -3.396114 22.802459 -4.144255 -1.744833 10.640138 0.000000 0.000000 0.000000 4.492568 5.545632 -29.650360 14.862848 -23.954677 3.170040 11.855177 -8.268877 -1.191564 0.000000 0.000000 0.000000 -7.125000 0.000000 0.000000 -11.682865 31.068253 -4.052678 0.000000 0.000000 0.000000 -2.847526 8.611124 1.753237 -16.242426 -25.848249 -3.751059 -14.292751 -4.000733 3.607575 0.000000 0.000000 0.000000 7.125000 0.000000 0.000000 10.057719 33.575373 2.854901
0.541053 18.049200 -31.350969 -3.166205 4.038991 2.236511 0.000000 0.000000 0.000000 -16.741693 -3.983742 -7.191667 1.599285 7.976102 22.641405 -0.002900 10.633779 -15.097449 0.077177 -1.792145 -4.931604 0.000000 0.000000 0.000000 20.628630 1.436971 -8.401465 -1.830108 -8.502846 24.252083 0.305077 -14.739408 -17.190982 -0.027369 1.067531 -2.934617 0.283894 1.835238 2.415525 1.560736 2.506760 -1.669658 1.316725 1.262077 -3.127231 7.886216 -1.873038 -21.502831 -6.012440 -3.698242 22.838715 -4.048126 -1.759198 10.618119 0.000000 0.000000 0.000000 5.872676 5.770671 -30.023568 15.024852 -24.180764 3.236090 11.790964 -8.651484 -1.325829 0.000000 0.000000 0.000000 -7.125000 0.000000 0.000000 -11.750622 31.201006 -4.038812 0.000000 0.000000 0.000000 -1.539659 8.718805 1.668740 -16.399396 -26.059177 -3.819720 -14.625178 -3.997074 3.656254 0.000000 0.000000 0.000000 7.125000 0.000000 0.000000 9.795557 33.637131 2.763717
0.532361 18.049383 -31.351258 -3.206269 4.098662 2.279374 0.000000 0.000000 0.000000 -16.668189 -4.074981 -7.261537 1.608607 7.998246 22.708796 -0.003566 10.655913 -15.117967 0.076400 -1.783158 -4.906734 0.000000 0.000000 0.000000 20.697671 1.417367 -8.450289 -1.826484 -8.494827 24.227498 0.306009 -14.745493 -17.189101 -0.027017 1.061171 -2.917129 1.830606 2.731227 3.149211 -0.255637 3.724869 -1.865937 -1.512923 1.807015 -3.550731 7.852720 -3.733732 -21.527321 -3.507790 -6.969489 22.919397 -3.589945 -2.934338 10.505585 0.000000 0.000000 0.000000 9.536934 5.121911 -33.932339 15.167261 -24.378615 3.294687 11.732904 -9.701391 -1.653687 0.000000 0.000000 0.000000 -7.125000 0.000000 0.000000 -11.839390 31.527429 -3.975694 0.000000 0.000000 0.000000 2.177041 8.682558 -1.783303 -16.652408 -26.397217 -3.931519 -14.901587 -3.578674 3.679174 0.000000 0.000000 0.000000 7.125000 0.000000 0.000000 9.574987 33.670847 2.692012
